name Walk8.mot
datacolumns 19
datarows 25
range 2.96000000 3.08000000
endheader

                time	   L_ground_force_vx	   L_ground_force_vy	   L_ground_force_vz	   L_ground_force_px	   L_ground_force_py	   L_ground_force_pz	   R_ground_force_vx	   R_ground_force_vy	   R_ground_force_vz	   R_ground_force_px	   R_ground_force_py	   R_ground_force_pz	   L_ground_torque_x	   L_ground_torque_y	   L_ground_torque_z	   R_ground_torque_x	   R_ground_torque_y	   R_ground_torque_z	
          2.96000000	          8.42602945	         59.17825588	         -0.06375113	         -0.06121670	          0.00000000	         -0.01156862	          0.00000000	          0.00000000	          0.00000000	          0.00000000	          0.00000000	          0.00000000	          0.00000000	         -0.00152765	          0.00000000	          0.00000000	         -0.00000000	          0.00000000	
          2.96500000	          9.32316256	         84.62277514	         -0.37912506	         -0.13785289	          0.00000000	         -0.02392646	          0.00000000	          0.00000000	          0.00000000	          0.00000000	          0.00000000	          0.00000000	          0.00000000	         -0.01017522	          0.00000000	          0.00000000	         -0.00000000	          0.00000000	
          2.97000000	          8.86257370	        112.06457805	         -1.00428757	         -0.20536575	          0.00000000	         -0.03478075	          0.00000000	          0.00000000	          0.00000000	          0.00000000	          0.00000000	          0.00000000	          0.00000000	         -0.00766777	          0.00000000	          0.00000000	         -0.00000000	          0.00000000	
          2.97500000	          6.68829845	        140.31205494	         -1.94751400	         -0.26150555	          0.00000000	         -0.04374613	          0.00000000	          0.00000000	          0.00000000	          0.00000000	          0.00000000	          0.00000000	          0.00000000	          0.00799924	          0.00000000	          0.00000000	         -0.00000000	          0.00000000	
          2.98000000	          2.69985245	        168.50640792	         -3.13199195	         -0.30574519	          0.00000000	         -0.05074794	          0.00000000	          0.00000000	          0.00000000	          0.00000000	          0.00000000	          0.00000000	          0.00000000	          0.03890340	          0.00000000	          0.00000000	         -0.00000000	          0.00000000	
          2.98500000	         -2.88091276	        196.27470935	         -4.41429177	         -0.33870678	          0.00000000	         -0.05591683	         -0.00000000	          0.00000000	          0.00000000	          0.00000000	          0.00000000	          0.00000000	          0.00000000	          0.08629585	          0.00000000	          0.00000000	         -0.00000000	          0.00000000	
          2.99000000	         -9.57224283	        223.46819399	         -5.63649302	         -0.36170428	          0.00000000	         -0.05949835	         -0.00000000	          0.00000000	          0.00000000	          0.00000000	          0.00000000	          0.00000000	          0.00000000	          0.14953079	          0.00000000	          0.00000000	         -0.00000000	          0.00000000	
          2.99500000	        -16.72357671	        249.95828472	         -6.66481709	         -0.37639111	          0.00000000	         -0.06178512	         -0.00000000	          0.00000000	          0.00000000	          0.00000000	          0.00000000	          0.00000000	          0.00000000	          0.22518590	          0.00000000	          0.00000000	         -0.00000000	          0.00000000	
          3.00000000	        -23.61307244	        275.60904059	         -7.40815892	         -0.38450128	          0.00000000	         -0.06307600	         -0.00000000	          0.00000000	          0.00000000	          0.00000000	          0.00000000	          0.00000000	          0.00000000	          0.30704633	          0.00000000	          0.00000000	         -0.00000000	          0.00000000	
          3.00500000	        -29.58846831	        300.31576100	         -7.81526763	         -0.38767237	          0.00000000	         -0.06364784	         -0.00000000	          0.00000000	          0.00000000	          0.00000000	          0.00000000	          0.00000000	          0.00000000	          0.38648042	          0.00000000	          0.00000000	          0.00000000	          0.00000000	
          3.01000000	        -34.24595437	        324.00778226	         -7.84711925	         -0.38733547	          0.00000000	         -0.06374250	         -0.00000000	          0.00000000	          0.00000000	          0.00000000	          0.00000000	          0.00000000	          0.00000000	          0.45339614	          0.00000000	          0.00000000	          0.00000000	          0.00000000	
          3.01500000	        -37.55496873	        346.61311688	         -7.44885600	         -0.38466232	          0.00000000	         -0.06356006	         -0.00000000	          0.00000000	          0.00000000	         -0.00000000	          0.00000000	         -0.00000000	          0.00000000	          0.49812541	          0.00000000	          0.00000000	          0.00000000	          0.00000000	
          3.02000000	        -39.81851210	        368.05676799	         -6.55796129	         -0.38055662	          0.00000000	         -0.06325344	         -0.00000000	          0.00000000	         -0.00000000	         -0.00000000	          0.00000000	         -0.00000000	          0.00000000	          0.51346739	          0.00000000	          0.00000000	          0.00000000	          0.00000000	
          3.02500000	        -41.48641847	        388.33074793	         -5.13674017	         -0.37567918	          0.00000000	         -0.06293241	         -0.00000000	         -0.00000000	         -0.00000000	         -0.00000000	          0.00000000	         -0.00000000	          0.00000000	          0.49614919	          0.00000000	          0.00000000	          0.00000000	          0.00000000	
          3.03000000	        -42.96585833	        407.57577122	         -3.18832939	         -0.37049044	          0.00000000	         -0.06267326	         -0.00000000	         -0.00000000	         -0.00000000	         -0.00000000	          0.00000000	         -0.00000000	          0.00000000	          0.44766045	          0.00000000	          0.00000000	          0.00000000	          0.00000000	
          3.03500000	        -44.52800345	        426.09535984	         -0.75625448	         -0.36529519	          0.00000000	         -0.06252498	         -0.00000000	         -0.00000001	         -0.00000000	         -0.00000000	          0.00000000	         -0.00000000	          0.00000000	          0.37439851	          0.00000000	          0.00000000	          0.00000000	          0.00000000	
          3.04000000	        -46.31213464	        444.28012398	          2.07384929	         -0.36028473	          0.00000000	         -0.06250956	         -0.00000000	         -0.00000001	         -0.00000000	         -0.00000000	          0.00000000	         -0.00000000	          0.00000000	          0.28746374	          0.00000000	          0.00000000	          0.00000000	          0.00000000	
          3.04500000	        -48.37625127	        462.46125825	          5.16743834	         -0.35557690	          0.00000000	         -0.06262538	         -0.00000000	         -0.00000002	         -0.00000000	         -0.00000000	          0.00000000	         -0.00000000	          0.00000000	          0.20212797	          0.00000000	          0.00000000	          0.00000000	          0.00000000	
          3.05000000	        -50.73127328	        480.79620939	          8.34873096	         -0.35124502	          0.00000000	         -0.06285292	         -0.00000000	         -0.00000002	         -0.00000000	         -0.00000000	          0.00000000	         -0.00000000	          0.00000000	          0.13513837	          0.00000000	          0.00000000	          0.00000000	          0.00000000	
          3.05500000	        -53.33290692	        499.31787168	         11.44516011	         -0.34732373	          0.00000000	         -0.06316338	          0.00000000	         -0.00000003	         -0.00000000	         -0.00000000	          0.00000000	         -0.00000000	          0.00000000	          0.09883015	          0.00000000	          0.00000000	          0.00000000	          0.00000000	
          3.06000000	        -56.07915901	        518.07909741	         14.34341340	         -0.34381867	          0.00000000	         -0.06352926	          0.00000000	         -0.00000004	         -0.00000000	         -0.00000000	          0.00000000	         -0.00000000	          0.00000000	          0.09768014	          0.00000000	          0.00000000	          0.00000000	          0.00000000	
          3.06500000	        -58.84765614	        537.20588390	         17.00909458	         -0.34071861	          0.00000000	         -0.06392974	          0.00000000	         -0.00000004	         -0.00000001	         -0.00000000	          0.00000000	         -0.00000000	          0.00000000	          0.12868495	          0.00000000	          0.00000000	          0.00000000	          0.00000000	
          3.07000000	        -61.53306496	        556.82995097	         19.46326438	         -0.33799771	          0.00000000	         -0.06435019	          0.00000000	         -0.00000005	         -0.00000001	         -0.00000000	          0.00000000	         -0.00000000	          0.00000000	          0.18475651	          0.00000000	          0.00000000	          0.00000000	          0.00000000	
          3.07500000	        -64.05874585	        577.00108303	         21.74611386	         -0.33561931	          0.00000000	         -0.06477949	          0.00000001	         -0.00000005	         -0.00000001	         -0.00000000	          0.00000000	         -0.00000000	          0.00000000	          0.25889158	          0.00000000	          0.00000000	          0.00000000	          0.00000000	
          3.08000000	        -66.37145702	        597.64132921	         23.88989487	         -0.33354336	          0.00000000	         -0.06520768	          0.00000001	         -0.00000005	         -0.00000000	         -0.00000000	          0.00000000	         -0.00000000	          0.00000000	          0.34652875	          0.00000000	          0.00000000	         -0.00000000	          0.00000000	
